<svg xmlns="http://www.w3.org/2000/svg" xmlns:xlink="http://www.w3.org/1999/xlink" width="1024" zoomAndPan="magnify" viewBox="0 0 768 767.999994" height="1024" preserveAspectRatio="xMidYMid meet" version="1.0"><defs><clipPath id="b24635cba3"><path d="M 92.234375 92.234375 L 675.734375 92.234375 L 675.734375 675.734375 L 92.234375 675.734375 Z M 92.234375 92.234375 " clip-rule="nonzero"/></clipPath><clipPath id="f3da5ce828"><path d="M 188 290 L 295 290 L 295 495 L 188 495 Z M 188 290 " clip-rule="nonzero"/></clipPath><clipPath id="f50ff3195c"><path d="M 92.234375 392.441406 L 392.402344 92.277344 L 675.597656 375.472656 L 375.429688 675.640625 Z M 92.234375 392.441406 " clip-rule="nonzero"/></clipPath><clipPath id="944ed18e55"><path d="M 92.234375 392.441406 L 392.402344 92.277344 L 675.597656 375.472656 L 375.429688 675.640625 Z M 92.234375 392.441406 " clip-rule="nonzero"/></clipPath><clipPath id="9010d6dfea"><path d="M 92.234375 392.441406 L 392.402344 92.277344 L 675.597656 375.472656 L 375.429688 675.640625 Z M 92.234375 392.441406 " clip-rule="nonzero"/></clipPath><clipPath id="d7517a8ab0"><path d="M 290 188 L 495 188 L 495 295 L 290 295 Z M 290 188 " clip-rule="nonzero"/></clipPath><clipPath id="c84e09ae78"><path d="M 92.234375 392.441406 L 392.402344 92.277344 L 675.597656 375.472656 L 375.429688 675.640625 Z M 92.234375 392.441406 " clip-rule="nonzero"/></clipPath><clipPath id="4aba453b18"><path d="M 92.234375 392.441406 L 392.402344 92.277344 L 675.597656 375.472656 L 375.429688 675.640625 Z M 92.234375 392.441406 " clip-rule="nonzero"/></clipPath><clipPath id="0b13e2aecb"><path d="M 92.234375 392.441406 L 392.402344 92.277344 L 675.597656 375.472656 L 375.429688 675.640625 Z M 92.234375 392.441406 " clip-rule="nonzero"/></clipPath><clipPath id="e0a8edb52c"><path d="M 273 473 L 478 473 L 478 580 L 273 580 Z M 273 473 " clip-rule="nonzero"/></clipPath><clipPath id="848d119445"><path d="M 92.234375 392.441406 L 392.402344 92.277344 L 675.597656 375.472656 L 375.429688 675.640625 Z M 92.234375 392.441406 " clip-rule="nonzero"/></clipPath><clipPath id="9b10fce173"><path d="M 92.234375 392.441406 L 392.402344 92.277344 L 675.597656 375.472656 L 375.429688 675.640625 Z M 92.234375 392.441406 " clip-rule="nonzero"/></clipPath><clipPath id="1830b967e2"><path d="M 92.234375 392.441406 L 392.402344 92.277344 L 675.597656 375.472656 L 375.429688 675.640625 Z M 92.234375 392.441406 " clip-rule="nonzero"/></clipPath><clipPath id="5942c46441"><path d="M 473 273 L 580 273 L 580 478 L 473 478 Z M 473 273 " clip-rule="nonzero"/></clipPath><clipPath id="090141cdd0"><path d="M 92.234375 392.441406 L 392.402344 92.277344 L 675.597656 375.472656 L 375.429688 675.640625 Z M 92.234375 392.441406 " clip-rule="nonzero"/></clipPath><clipPath id="459d894d6d"><path d="M 92.234375 392.441406 L 392.402344 92.277344 L 675.597656 375.472656 L 375.429688 675.640625 Z M 92.234375 392.441406 " clip-rule="nonzero"/></clipPath><clipPath id="10fc36adfc"><path d="M 92.234375 392.441406 L 392.402344 92.277344 L 675.597656 375.472656 L 375.429688 675.640625 Z M 92.234375 392.441406 " clip-rule="nonzero"/></clipPath><clipPath id="8dd919de4f"><path d="M 237 240 L 343 240 L 343 346 L 237 346 Z M 237 240 " clip-rule="nonzero"/></clipPath><clipPath id="64fcdca7f5"><path d="M 92.234375 392.441406 L 392.402344 92.277344 L 675.597656 375.472656 L 375.429688 675.640625 Z M 92.234375 392.441406 " clip-rule="nonzero"/></clipPath><clipPath id="124358af3d"><path d="M 92.234375 392.441406 L 392.402344 92.277344 L 675.597656 375.472656 L 375.429688 675.640625 Z M 92.234375 392.441406 " clip-rule="nonzero"/></clipPath><clipPath id="08bd970aa6"><path d="M 92.234375 392.441406 L 392.402344 92.277344 L 675.597656 375.472656 L 375.429688 675.640625 Z M 92.234375 392.441406 " clip-rule="nonzero"/></clipPath><clipPath id="f35627f517"><path d="M 422 425 L 528 425 L 528 531 L 422 531 Z M 422 425 " clip-rule="nonzero"/></clipPath><clipPath id="b0a45e3c04"><path d="M 92.234375 392.441406 L 392.402344 92.277344 L 675.597656 375.472656 L 375.429688 675.640625 Z M 92.234375 392.441406 " clip-rule="nonzero"/></clipPath><clipPath id="a92d422e48"><path d="M 92.234375 392.441406 L 392.402344 92.277344 L 675.597656 375.472656 L 375.429688 675.640625 Z M 92.234375 392.441406 " clip-rule="nonzero"/></clipPath><clipPath id="43975f122e"><path d="M 92.234375 392.441406 L 392.402344 92.277344 L 675.597656 375.472656 L 375.429688 675.640625 Z M 92.234375 392.441406 " clip-rule="nonzero"/></clipPath><clipPath id="36a77e3661"><path d="M 235 423 L 341 423 L 341 529 L 235 529 Z M 235 423 " clip-rule="nonzero"/></clipPath><clipPath id="dc677bd4e8"><path d="M 92.234375 392.441406 L 392.402344 92.277344 L 675.597656 375.472656 L 375.429688 675.640625 Z M 92.234375 392.441406 " clip-rule="nonzero"/></clipPath><clipPath id="9f64dd2bf8"><path d="M 92.234375 392.441406 L 392.402344 92.277344 L 675.597656 375.472656 L 375.429688 675.640625 Z M 92.234375 392.441406 " clip-rule="nonzero"/></clipPath><clipPath id="7538281756"><path d="M 92.234375 392.441406 L 392.402344 92.277344 L 675.597656 375.472656 L 375.429688 675.640625 Z M 92.234375 392.441406 " clip-rule="nonzero"/></clipPath><clipPath id="3e32705d5c"><path d="M 420 238 L 526 238 L 526 344 L 420 344 Z M 420 238 " clip-rule="nonzero"/></clipPath><clipPath id="967293f1b0"><path d="M 92.234375 392.441406 L 392.402344 92.277344 L 675.597656 375.472656 L 375.429688 675.640625 Z M 92.234375 392.441406 " clip-rule="nonzero"/></clipPath><clipPath id="b38fe4cf6c"><path d="M 92.234375 392.441406 L 392.402344 92.277344 L 675.597656 375.472656 L 375.429688 675.640625 Z M 92.234375 392.441406 " clip-rule="nonzero"/></clipPath><clipPath id="87531c84cb"><path d="M 92.234375 392.441406 L 392.402344 92.277344 L 675.597656 375.472656 L 375.429688 675.640625 Z M 92.234375 392.441406 " clip-rule="nonzero"/></clipPath></defs><g clip-path="url(#b24635cba3)"><path fill="#c44536" d="M 675.757812 383.996094 C 675.757812 388.769531 675.640625 393.542969 675.40625 398.3125 C 675.171875 403.082031 674.820312 407.839844 674.351562 412.59375 C 673.882812 417.34375 673.300781 422.082031 672.597656 426.804688 C 671.898438 431.53125 671.082031 436.234375 670.152344 440.914062 C 669.21875 445.597656 668.175781 450.257812 667.011719 454.886719 C 665.851562 459.519531 664.582031 464.121094 663.195312 468.691406 C 661.808594 473.257812 660.3125 477.792969 658.703125 482.289062 C 657.09375 486.78125 655.375 491.238281 653.546875 495.648438 C 651.722656 500.058594 649.785156 504.421875 647.746094 508.738281 C 645.703125 513.054688 643.558594 517.320312 641.304688 521.53125 C 639.054688 525.742188 636.703125 529.894531 634.25 533.992188 C 631.792969 538.085938 629.238281 542.121094 626.585938 546.089844 C 623.933594 550.058594 621.183594 553.960938 618.339844 557.796875 C 615.496094 561.632812 612.558594 565.394531 609.53125 569.085938 C 606.5 572.777344 603.382812 576.394531 600.175781 579.929688 C 596.96875 583.46875 593.679688 586.925781 590.300781 590.300781 C 586.925781 593.679688 583.46875 596.96875 579.929688 600.175781 C 576.394531 603.382812 572.777344 606.5 569.085938 609.53125 C 565.394531 612.558594 561.632812 615.496094 557.796875 618.339844 C 553.960938 621.183594 550.058594 623.933594 546.089844 626.585938 C 542.121094 629.238281 538.085938 631.792969 533.992188 634.25 C 529.894531 636.703125 525.742188 639.054688 521.53125 641.304688 C 517.320312 643.558594 513.054688 645.703125 508.738281 647.746094 C 504.421875 649.785156 500.058594 651.722656 495.648438 653.546875 C 491.238281 655.375 486.78125 657.09375 482.289062 658.703125 C 477.792969 660.3125 473.257812 661.808594 468.691406 663.195312 C 464.121094 664.582031 459.519531 665.851562 454.886719 667.015625 C 450.257812 668.175781 445.597656 669.21875 440.914062 670.152344 C 436.234375 671.082031 431.527344 671.898438 426.804688 672.597656 C 422.082031 673.300781 417.34375 673.882812 412.59375 674.351562 C 407.839844 674.820312 403.082031 675.171875 398.3125 675.40625 C 393.542969 675.640625 388.769531 675.757812 383.996094 675.757812 C 379.222656 675.757812 374.449219 675.640625 369.679688 675.40625 C 364.910156 675.171875 360.148438 674.820312 355.398438 674.351562 C 350.644531 673.882812 345.910156 673.300781 341.183594 672.597656 C 336.460938 671.898438 331.757812 671.082031 327.074219 670.152344 C 322.394531 669.21875 317.734375 668.175781 313.101562 667.015625 C 308.472656 665.851562 303.871094 664.582031 299.300781 663.195312 C 294.734375 661.808594 290.199219 660.3125 285.703125 658.703125 C 281.207031 657.09375 276.753906 655.375 272.34375 653.546875 C 267.933594 651.722656 263.566406 649.785156 259.25 647.746094 C 254.933594 645.703125 250.671875 643.558594 246.460938 641.304688 C 242.25 639.054688 238.097656 636.703125 234 634.25 C 229.90625 631.792969 225.871094 629.238281 221.902344 626.585938 C 217.929688 623.933594 214.027344 621.183594 210.195312 618.339844 C 206.359375 615.496094 202.59375 612.558594 198.902344 609.53125 C 195.214844 606.5 191.597656 603.382812 188.0625 600.175781 C 184.523438 596.96875 181.066406 593.679688 177.6875 590.300781 C 174.3125 586.925781 171.019531 583.46875 167.816406 579.929688 C 164.609375 576.394531 161.488281 572.777344 158.460938 569.085938 C 155.433594 565.394531 152.496094 561.632812 149.652344 557.796875 C 146.804688 553.960938 144.058594 550.058594 141.40625 546.089844 C 138.753906 542.121094 136.199219 538.085938 133.742188 533.992188 C 131.289062 529.894531 128.9375 525.742188 126.683594 521.53125 C 124.433594 517.320312 122.289062 513.054688 120.246094 508.738281 C 118.203125 504.421875 116.269531 500.058594 114.441406 495.648438 C 112.617188 491.238281 110.898438 486.78125 109.289062 482.289062 C 107.679688 477.792969 106.183594 473.257812 104.796875 468.691406 C 103.410156 464.121094 102.136719 459.519531 100.976562 454.886719 C 99.816406 450.257812 98.773438 445.597656 97.839844 440.914062 C 96.910156 436.234375 96.09375 431.53125 95.390625 426.804688 C 94.691406 422.082031 94.105469 417.34375 93.640625 412.59375 C 93.171875 407.839844 92.820312 403.082031 92.585938 398.3125 C 92.351562 393.542969 92.234375 388.769531 92.234375 383.996094 C 92.234375 379.222656 92.351562 374.449219 92.585938 369.679688 C 92.820312 364.910156 93.171875 360.148438 93.640625 355.398438 C 94.105469 350.644531 94.691406 345.910156 95.390625 341.183594 C 96.09375 336.460938 96.910156 331.757812 97.839844 327.074219 C 98.773438 322.394531 99.816406 317.734375 100.976562 313.101562 C 102.136719 308.472656 103.410156 303.871094 104.796875 299.300781 C 106.183594 294.734375 107.679688 290.199219 109.289062 285.703125 C 110.898438 281.207031 112.617188 276.753906 114.441406 272.34375 C 116.269531 267.933594 118.203125 263.566406 120.246094 259.25 C 122.289062 254.933594 124.433594 250.671875 126.683594 246.460938 C 128.9375 242.25 131.289062 238.097656 133.742188 234 C 136.199219 229.90625 138.753906 225.871094 141.40625 221.902344 C 144.058594 217.929688 146.804688 214.027344 149.652344 210.195312 C 152.496094 206.359375 155.433594 202.59375 158.460938 198.902344 C 161.488281 195.214844 164.609375 191.597656 167.816406 188.0625 C 171.019531 184.523438 174.3125 181.066406 177.6875 177.6875 C 181.066406 174.3125 184.523438 171.019531 188.0625 167.816406 C 191.597656 164.609375 195.214844 161.488281 198.902344 158.460938 C 202.59375 155.433594 206.359375 152.496094 210.195312 149.652344 C 214.027344 146.804688 217.929688 144.058594 221.902344 141.40625 C 225.871094 138.753906 229.90625 136.199219 234 133.742188 C 238.097656 131.289062 242.25 128.9375 246.460938 126.683594 C 250.671875 124.433594 254.933594 122.289062 259.25 120.246094 C 263.566406 118.203125 267.933594 116.269531 272.34375 114.441406 C 276.753906 112.617188 281.207031 110.898438 285.703125 109.289062 C 290.199219 107.679688 294.734375 106.183594 299.300781 104.796875 C 303.871094 103.410156 308.472656 102.136719 313.101562 100.976562 C 317.734375 99.816406 322.394531 98.773438 327.074219 97.839844 C 331.757812 96.910156 336.460938 96.09375 341.183594 95.390625 C 345.910156 94.691406 350.644531 94.105469 355.398438 93.640625 C 360.148438 93.171875 364.910156 92.820312 369.679688 92.585938 C 374.449219 92.351562 379.222656 92.234375 383.996094 92.234375 C 388.769531 92.234375 393.542969 92.351562 398.3125 92.585938 C 403.082031 92.820312 407.839844 93.171875 412.59375 93.640625 C 417.34375 94.105469 422.082031 94.691406 426.804688 95.390625 C 431.527344 96.09375 436.234375 96.910156 440.914062 97.839844 C 445.597656 98.773438 450.257812 99.816406 454.886719 100.976562 C 459.519531 102.136719 464.121094 103.410156 468.691406 104.796875 C 473.257812 106.183594 477.792969 107.679688 482.289062 109.289062 C 486.78125 110.898438 491.238281 112.617188 495.648438 114.441406 C 500.058594 116.269531 504.421875 118.203125 508.738281 120.246094 C 513.054688 122.289062 517.320312 124.433594 521.53125 126.683594 C 525.742188 128.9375 529.894531 131.289062 533.992188 133.742188 C 538.085938 136.199219 542.121094 138.753906 546.089844 141.40625 C 550.058594 144.058594 553.960938 146.804688 557.796875 149.652344 C 561.632812 152.496094 565.394531 155.433594 569.085938 158.460938 C 572.777344 161.488281 576.394531 164.609375 579.929688 167.816406 C 583.46875 171.019531 586.925781 174.3125 590.300781 177.6875 C 593.679688 181.066406 596.96875 184.523438 600.175781 188.0625 C 603.382812 191.597656 606.5 195.214844 609.53125 198.902344 C 612.558594 202.59375 615.496094 206.359375 618.339844 210.195312 C 621.183594 214.027344 623.933594 217.929688 626.585938 221.902344 C 629.238281 225.871094 631.792969 229.90625 634.25 234 C 636.703125 238.097656 639.054688 242.25 641.304688 246.460938 C 643.558594 250.671875 645.703125 254.933594 647.746094 259.25 C 649.785156 263.566406 651.722656 267.933594 653.546875 272.34375 C 655.375 276.753906 657.09375 281.207031 658.703125 285.703125 C 660.3125 290.199219 661.808594 294.734375 663.195312 299.300781 C 664.582031 303.871094 665.851562 308.472656 667.011719 313.101562 C 668.175781 317.734375 669.21875 322.394531 670.152344 327.074219 C 671.082031 331.757812 671.898438 336.460938 672.597656 341.183594 C 673.300781 345.910156 673.882812 350.644531 674.351562 355.398438 C 674.820312 360.148438 675.171875 364.910156 675.40625 369.679688 C 675.640625 374.449219 675.757812 379.222656 675.757812 383.996094 Z M 675.757812 383.996094 " fill-opacity="1" fill-rule="nonzero"/></g><g clip-path="url(#f3da5ce828)"><g clip-path="url(#f50ff3195c)"><g clip-path="url(#944ed18e55)"><g clip-path="url(#9010d6dfea)"><path fill="#000000" d="M 293.019531 395.449219 L 194.160156 494.3125 L 188.027344 488.179688 L 283.824219 392.386719 L 188.058594 296.621094 L 194.191406 290.484375 L 293.023438 389.316406 C 294.707031 391.003906 294.707031 393.761719 293.019531 395.449219 Z M 293.019531 395.449219 " fill-opacity="1" fill-rule="nonzero"/></g></g></g></g><g clip-path="url(#d7517a8ab0)"><g clip-path="url(#c84e09ae78)"><g clip-path="url(#4aba453b18)"><g clip-path="url(#0b13e2aecb)"><path fill="#000000" d="M 494.230469 194.238281 L 395.410156 293.0625 C 393.722656 294.75 390.960938 294.75 389.277344 293.0625 L 290.445312 194.230469 L 296.578125 188.097656 L 392.34375 283.863281 L 488.136719 188.070312 L 494.269531 194.203125 Z M 494.230469 194.238281 " fill-opacity="1" fill-rule="nonzero"/></g></g></g></g><g clip-path="url(#e0a8edb52c)"><g clip-path="url(#848d119445)"><g clip-path="url(#9b10fce173)"><g clip-path="url(#1830b967e2)"><path fill="#000000" d="M 477.386719 573.683594 L 471.253906 579.816406 L 375.488281 484.050781 L 279.695312 579.84375 L 273.5625 573.714844 L 372.421875 474.851562 C 374.109375 473.164062 376.871094 473.164062 378.554688 474.851562 Z M 477.386719 573.683594 " fill-opacity="1" fill-rule="nonzero"/></g></g></g></g><g clip-path="url(#5942c46441)"><g clip-path="url(#090141cdd0)"><g clip-path="url(#459d894d6d)"><g clip-path="url(#10fc36adfc)"><path fill="#000000" d="M 579.773438 471.292969 L 573.640625 477.429688 L 474.808594 378.597656 C 473.125 376.910156 473.125 374.152344 474.8125 372.464844 L 573.671875 273.601562 L 579.804688 279.734375 L 484.007812 375.527344 Z M 579.773438 471.292969 " fill-opacity="1" fill-rule="nonzero"/></g></g></g></g><g clip-path="url(#8dd919de4f)"><g clip-path="url(#64fcdca7f5)"><g clip-path="url(#124358af3d)"><g clip-path="url(#08bd970aa6)"><path fill="#000000" d="M 342.816406 339.523438 L 336.683594 345.65625 L 323.042969 332.011719 L 329.175781 325.878906 Z M 316.105469 312.8125 L 309.972656 318.945312 L 294.644531 303.617188 L 300.777344 297.484375 Z M 287.710938 284.417969 L 281.578125 290.550781 L 266.25 275.222656 L 272.382812 269.085938 Z M 259.3125 256.019531 L 253.179688 262.152344 L 237.851562 246.824219 L 243.984375 240.691406 Z M 259.3125 256.019531 " fill-opacity="1" fill-rule="nonzero"/></g></g></g></g><g clip-path="url(#f35627f517)"><g clip-path="url(#b0a45e3c04)"><g clip-path="url(#a92d422e48)"><g clip-path="url(#43975f122e)"><path fill="#000000" d="M 527.183594 523.886719 L 521.046875 530.019531 L 507.40625 516.378906 L 513.539062 510.246094 Z M 500.472656 497.175781 L 494.339844 503.3125 L 479.011719 487.980469 L 485.144531 481.847656 Z M 472.074219 468.78125 L 465.941406 474.914062 L 450.613281 459.585938 L 456.746094 453.453125 Z M 443.71875 440.421875 L 437.585938 446.558594 L 422.253906 431.226562 L 428.390625 425.09375 Z M 443.71875 440.421875 " fill-opacity="1" fill-rule="nonzero"/></g></g></g></g><g clip-path="url(#36a77e3661)"><g clip-path="url(#dc677bd4e8)"><g clip-path="url(#9f64dd2bf8)"><g clip-path="url(#7538281756)"><path fill="#000000" d="M 340.65625 429.285156 L 327.011719 442.933594 L 320.878906 436.800781 L 334.527344 423.15625 Z M 313.9375 456.003906 L 298.605469 471.335938 L 292.472656 465.207031 L 307.808594 449.871094 Z M 285.535156 484.410156 L 270.199219 499.742188 L 264.070312 493.609375 L 279.402344 478.277344 Z M 257.167969 512.773438 L 241.796875 528.148438 L 235.664062 522.015625 L 250.996094 506.683594 L 257.128906 512.8125 Z M 257.167969 512.773438 " fill-opacity="1" fill-rule="nonzero"/></g></g></g></g><g clip-path="url(#3e32705d5c)"><g clip-path="url(#967293f1b0)"><g clip-path="url(#b38fe4cf6c)"><g clip-path="url(#87531c84cb)"><path fill="#000000" d="M 525.078125 244.867188 L 511.429688 258.511719 L 505.300781 252.378906 L 518.945312 238.734375 Z M 498.359375 271.582031 L 483.027344 286.917969 L 476.894531 280.785156 L 492.226562 265.453125 Z M 469.992188 299.949219 L 454.660156 315.28125 L 448.527344 309.152344 L 463.863281 293.820312 Z M 441.589844 328.355469 L 426.253906 343.6875 L 420.125 337.554688 L 435.457031 322.222656 Z M 441.589844 328.355469 " fill-opacity="1" fill-rule="nonzero"/></g></g></g></g></svg>